# xmcd
#
# Track frame offsets:
# 150
# 18427
# 41717
# 54700
# 83692
# 94542
# 117575
# 141765
# 168752
# 188392
# 213087
# 244277
# 275902
#
# Disc length: 4057 seconds
#
#
# Revision: 3
# Processed by: cddbd v1.5.1PL2 Copyright (c) Steve Scherf et al.
# Submitted via: FreeRIP 2.942 
#
DISCID=af0fd70d
DTITLE=Mojo Blues Band - Super Blues News  Disc 3
DYEAR=1900
DGENRE=Blues
TTITLE0=MBB and Lowell Fulson - Everyday I Have The Blues
TTITLE1=MBB and Katie Webster - Oh Wee Sweet Daddy
TTITLE2=MBB and Big Jay McNeely - Yeah Yeah Boogie
TTITLE3=MBB and Big Jay McNeely - There's Something On Your Mind
TTITLE4=MBB and Big Jay McNeely - Big Jay's Opener
TTITLE5=MBB and Big Jay McNeely - Young Girl Blues
TTITLE6=MBB and Big Jay McNeely - Donkey Honk Part 8
TTITLE7=MBB and Champion Jack Dupree and Axel Zwingenberger - Come On Little Girl
TTITLE8=MBB and Axel Zwingenberger - Someday
TTITLE9=MBB and Little Willie Littlefield - Let's Rock, Let's Roll
TTITLE10=MBB and Little Willie Littlefield - Sad Story
TTITLE11=MBB and Dana Gillespie - I'm A Woman (But I Talk Too Much)
TTITLE12=MBB and Dana Gillespie - A Lotta What You Got
EXTD=
EXTT0=
EXTT1=
EXTT2=
EXTT3=
EXTT4=
EXTT5=
EXTT6=
EXTT7=
EXTT8=
EXTT9=
EXTT10=
EXTT11=
EXTT12=
PLAYORDER=
